<svg xmlns="http://www.w3.org/2000/svg" viewBox="0 0 21.38 20.47"><defs><style>.cls-1{fill:#0cbac4;}</style></defs><title>user</title><g id="Слой_2" data-name="Слой 2"><g id="FORM"><path class="cls-1" d="M16.74,15.3c-2.8-1-3.7-1.89-3.7-3.73,0-1.11.86-.75,1.24-2.78.15-.84.91,0,1.05-1.93,0-.77-.41-1-.41-1s.21-1.13.29-2C15.31,2.81,14.58,0,10.69,0S6.07,2.81,6.17,3.89c.08.88.29,2,.29,2s-.41.19-.41,1C6.2,8.78,7,8,7.11,8.79c.37,2,1.23,1.67,1.23,2.78,0,1.84-.9,2.7-3.7,3.73S0,17.37,0,18.08v2.39H21.38V18.08C21.38,17.37,19.56,16.32,16.74,15.3Z"/></g></g></svg>