<svg xmlns="http://www.w3.org/2000/svg" viewBox="0 0 26.34 26.34"><title>wallet</title><g id="Слой_2" data-name="Слой 2"><g id="main_event" data-name="main event"><path d="M24.54,21.55H20.35a4.79,4.79,0,0,1,0-9.58h4.19a.59.59,0,0,0,.6-.6V9.58a2.39,2.39,0,0,0-2.2-2.38l-3.44-6A2.37,2.37,0,0,0,16.25.32L4.46,7.18H2.39A2.4,2.4,0,0,0,0,9.58V24a2.39,2.39,0,0,0,2.39,2.39H22.75A2.39,2.39,0,0,0,25.14,24v-1.8A.6.6,0,0,0,24.54,21.55ZM20.24,4.91l1.31,2.27H16.33ZM6.84,7.18l10-5.82a1.16,1.16,0,0,1,.89-.12,1.18,1.18,0,0,1,.72.55h0L9.21,7.18Z"/><path d="M24.54,13.17H20.35a3.59,3.59,0,1,0,0,7.18h4.19a1.79,1.79,0,0,0,1.8-1.79V15A1.8,1.8,0,0,0,24.54,13.17ZM20.35,18a1.2,1.2,0,1,1,1.2-1.2A1.19,1.19,0,0,1,20.35,18Z"/></g></g></svg>