<svg xmlns="http://www.w3.org/2000/svg" viewBox="0 0 415.26 415.22"><defs><style>.cls-1{fill:#e5e5e5;fill-rule:evenodd;}</style></defs><title>earth-human</title><g id="Слой_2" data-name="Слой 2"><g id="FORM"><path class="cls-1" d="M321.31,144.8a76.32,76.32,0,0,0,.19,21.76C323,178.42,326,190,330.65,199c5,9.7,9.07,12.33,17,14.34,2.86.72,5.6,1.65,11,3.27,4.43,1.42,5.39,7.27,4.62,11.27q-1.36,6.41-3,13.18c-.9,11.92-.17,24.16,3,33,2.4,6.72,3.51,9.28,10.34,9.63,1.69.09,3.41.16,6.58.28,2.2-.07,2.71,3.3,1.18,7.47C359.78,341,343.15,370,301.59,392.82c22.92-27.05,41.86-63.16,53.29-96,2.19-6.3,1.35-7.23-.6-12.51a49.29,49.29,0,0,1-2.53-10.87c-6.6,22.49-14.92,45.85-25.08,67.16a303.41,303.41,0,0,1-21.09,36.28c-8.7,13.07-10.49,19.72-25.05,25.18,10.54-19,26.39-46.44,35.76-68.19,5.46-12.69,10.25-24.82,8.78-29.11-1.52-.71-5,7.48-7.5,12.65-11.66,23.88-32.62,63.49-49.83,89q-7.83,2.37-15.91,4.12c8.62-13.24,23.94-40.53,40-79.49,13-31.41,22.37-65.54,29.16-94.47.68-2.87,1.27-5.7,2-8.45,1.44-5.84,2.3-8.26-2.38-17.12a66.63,66.63,0,0,1-6.36-18.89c-7.08,40.41-18.17,89.36-33.69,132-13,35.78-33.9,68.31-48.31,89.24-4,.54-8.9,1-12.66,1.27,25.52-44,41.55-86.61,48.34-112.58,2.91-11.12,5.23-21.3,3-21.36-2.24,1.58-4.88,7.63-7.55,14.78-11,29.61-34,87.14-58.15,119.75-5.23,0-9.42-.22-15-.68,35.39-49.88,64.35-175.38,77-247.58A59.48,59.48,0,0,1,249,189.54c-7.24,5.42-10,10.15-10.7,15-.43,3-.78,4.24-1.42,7.21-12.93,60-25,120.42-56.21,201.83-4-.52-7.7-1.08-11.21-1.72,7.24-33.31,11.87-62.43,15.33-82.6,2.57-15,3.54-24.55,2.15-26.35-1-1.24-3.91,6-8.79,23.82-4.65,17-10.67,43.7-20.31,82.57-4-1-8.06-2.27-12.52-3.76-.1-47.76,12.59-111.34,25.32-167.88a60.68,60.68,0,0,1-14.79,14.15c-6.3,4.27-9.38,5.46-10.65,11.53-1.29,6.24-3.07,14.45-4.53,23.92-5.61,36.37-10.18,90.59-9.78,113.42-3.26-1.3-5.93-2.55-8.51-3.84-4.56-17.4-6.41-31.2-8.85-59.35-.3-3.45-.6-7.1-.88-11-.21-2.88-1-11.25-2.43-10.07-2.11,2.22-2.33,8-2.56,15.5-.53,17.78,3,45.82,4.6,59.71-23.12-11.5-20.89-92.95-19.11-115.38A45.18,45.18,0,0,1,79.66,293c-.67.5-1.74,1.52-1.84,4.11,0,.81-.28,14.32-.11,14.41-.48,31.63,1.9,42,13.2,67.84-16.94-11.54-31.39-21.82-38.2-41.6-3.54-10.29-5.57-22.06-6.87-33.73a10,10,0,0,1-.32-1.53c-1-10.87-1-10.87-1.69-22.61-.13-4.21,2.41-6.2,5.62-4.54,7.62,3.9,9.5,4.86,14.72,7.34,5.91,2.81,9.22,1.34,12.55-1.33A53.68,53.68,0,0,0,87.6,269.23c7.72-11.57,8.6-16.15,10.52-29.46.89-5.5,5.68-8.87,10.72-7.38,13.17,3.7,15,4.21,25.51,7,7.92,2.1,10.62,1.43,16.39-1.81,7.59-4.26,14.49-12.14,20.27-21.18,8.07-12.63,8.85-18.67,12.12-32.91a11.36,11.36,0,0,1,13.48-8.44c15.22,3.44,17.27,3.91,28.9,6.6,15,1.33,29.89-14.42,40-32.59,3.89-7,6.46-13.6,7.41-19.61.86-5.18,6-8,11.32-6.43,15.05,4.71,15.05,4.71,29.48,9.66,6.35,2.26,8.34,5.27,7.59,12.1Zm71.38,138.71c3.89-.6,3.89-.6,6.85-1.19.79-.14.4,2.37-.94,5.86-10.81,25.91-24.14,46.45-45,67.05,12.89-20.25,22.44-36.5,33.58-64.33,1.45-3.91,4-7.36,5.46-7.39ZM63.32,219.18c10.2,0,18.48,10.53,18.48,23.52s-8.28,23.52-18.48,23.52S44.84,255.69,44.84,242.7s8.28-23.52,18.48-23.52Zm-39.4,78.9a160.55,160.55,0,0,0,11.66,11.39,20.39,20.39,0,0,1,5.64,9c2.44,8.11,2.44,8.11,5.08,15.3,1,2.34.08,2.55-2,.54-2.8-2.94-4.24-4.45-5.55-5.92q-5.28-7.38-9.93-15.24a13.44,13.44,0,0,0-1.7-2.93c-.5-.86-1-1.72-1.46-2.59-.77-1.85-1.5-3.8-3-7.74-.9-2.78-.4-3.71,1.28-1.78ZM137,162.8c14.53,1.18,25.35,14.73,24.16,30.27s-13.93,27.17-28.47,26-25.34-14.73-24.15-30.27,13.94-27.17,28.46-26Zm87.54-54.67c15.51.69,28.08,13.15,28.08,27.82s-12.57,26-28.08,25.29-28.07-13.15-28.07-27.81,12.56-26,28.07-25.3Zm77.41-34.84c12.5,2.17,22.63,12.74,22.63,23.6s-10.13,17.9-22.63,15.72S279.3,99.86,279.3,89s10.13-17.9,22.63-15.72Zm49.82,75.45c10.2.29,18.47,11.19,18.47,24.36s-8.27,23.6-18.47,23.31-18.47-11.19-18.47-24.36,8.27-23.6,18.47-23.31Zm33.61,76.76c6.77,0,10.76,9.84,8.91,22s-8.85,22-15.63,22-10.77-9.84-8.92-22,8.85-22,15.64-22Z"/><path class="cls-1" d="M382,116.22a158.87,158.87,0,0,1,11.88,10.93c1.65,1.73,3.52,5.81,4.17,9.06,1.69,10.12,1.69,10.12,2.88,20.65.28,3.63-.89,5.55-2.71,3.95-5.85-4.48-5.85-4.48-12.65-9.17-2.57-1.7-4.83-6.38-5.06-10.63-.81-11.43-.81-11.43-2-22.08-.49-3.45,1.06-4.74,3.51-2.71Zm26.25,33.55c.88,3,1.7,6.12,2.44,9.21v.07c1.6,7.55,1.6,7.55,2.89,15.59.43,3.3.36,5-.17,3.81a54.74,54.74,0,0,0-5-7.74c-1.16-1.23-2.47-5.51-2.82-9.18-1.29-10.2-1.29-10.2-3-19.77-.7-3.24-.28-4.26.78-2.67a60,60,0,0,1,4.59,9.67c.07.2.19.59.3,1Zm.75,32.79a37.48,37.48,0,0,1,5.14,6.67c.56,1.2,1.06,4.91,1.14,8.24-.07,10.39-.07,10.39-.63,20.75-.32,3.72-1.06,6.15-1.71,5.68-2.41-1.82-2.41-1.82-5.66-4.06-1.32-.67-2.09-4.88-1.69-9,.83-11.92.83-11.92,1.15-23.55,0-3.82,1-6,2.26-4.71Zm-3.48,50.16c3.34,1.65,3.34,1.65,5.85,3,.67.51.66,3.85,0,7.52-2.17,10.53-2.17,10.53-4.8,20.95-1,3.59-2.45,6.6-3.28,6.77-2.85.14-2.85.14-6.58.18-1.48-.08-1.78-3.51-.62-7.68,3-12,3-12,5.52-24.12.77-4.26,2.53-7.21,3.9-6.64ZM12,144.17c2.86-.14,2.86-.14,6.6-.17,1.47.08,1.78,3.5.61,7.67-3,12-3,12-5.58,24.35-.76,4.26-2.53,7.22-3.88,6.64-3.36-1.65-3.36-1.65-5.87-3-.69-.3-.68-3.64,0-7.31,2.25-11,2.25-11,4.94-21.6,1-3.58,2.47-6.59,3.22-6.56Zm18.75.75c6.83.7,6.83.7,14.7,1.54,2.89.54,4.27,4.83,3,9.53-3.53,14.28-3.53,14.28-6.61,28.87-.9,4.78-4,8-6.84,7.27-7.46-2.66-7.46-2.66-13.91-5-2-.6-2.95-4.75-2.14-9.26,2.7-12.93,2.7-12.93,5.84-25.53,1.24-4.42,3.89-7.74,6-7.41ZM100.81,28.66a156.05,156.05,0,0,1,14.85-6.15c2.78-.89,3.53-.3,1.59,1.37-5.5,5.33-5.5,5.33-11.23,11.57a20.27,20.27,0,0,1-9,5.62,158.65,158.65,0,0,0-15.45,5.19c-2.35,1-2.41,0-.39-2.16A156.22,156.22,0,0,1,93.05,33.54a71.19,71.19,0,0,1,7.76-4.88ZM19.06,201.31c6.33,2.76,6.33,2.76,13.68,5.88,2.76,1,4.6,6,4,10.79-1.29,13.82-1.29,13.82-2.09,27.14-.13,4.59-2.47,6.84-5.06,5.41-6.94-4.35-6.94-4.35-12.94-8.65-1.83-1.26-3.29-5.79-3.26-9.75.4-12.18.4-12.18,1.32-24.6.44-4.24,2.36-7.05,4.32-6.22ZM75.22,53.93a154.07,154.07,0,0,1,15.46-4.66c2.93-.64,3.93,1.07,1.83,4.09-5.73,9.06-5.73,9.06-11.45,19-1.92,3.59-6.12,7-9.06,7.23C63.71,81,63.71,81,56.5,82.47c-2.33.63-2.56-1.6-.6-4.9,5.67-8.95,5.67-8.95,11.47-17.19a22.59,22.59,0,0,1,7.85-6.45ZM2.31,191.68A51.19,51.19,0,0,0,8,195.53c1.31.88,2.1,4.88,1.7,9-.82,11.92-.82,11.92-1.14,23.54,0,4-1,6.2-2.23,4.93a47.46,47.46,0,0,1-5.17-6.88c-.54-1-1-4.7-1.14-8.24.06-10.18.06-10.18.63-20.75.31-3.71,1-6.15,1.68-5.48Zm48.3-98c7.27-1.26,7.27-1.26,15.42-2.15,3-.16,4.08,2.88,2.2,7.07C63.15,111,63.15,111,58.3,124c-1.58,4.58-5.39,8.22-8.33,7.95-8-.38-8-.38-14.88-.66-2.12-.1-2.62-3.47-1.17-7.47,4.58-11.59,4.58-11.59,9.52-22.72,1.69-3.59,5-7,7.17-7.37ZM183.4,13.39c12.18.42,12.18.42,24.59,1.36,4.24.45,7,2.36,6.22,4.32-3,6.33-3,6.33-5.9,13.67-1.22,2.76-6,4.6-10.79,4-13.83-1.32-13.83-1.32-27.32-2.1-4.41-.17-6.82-2.47-5.22-5.1,4.36-6.94,4.36-6.94,8.47-12.91,1.46-1.84,5.79-3.27,10-3.27Zm104.92,3.33c9.57,4,9.57,4,19,8.47,3.13,1.62,6.26,3.7,6.92,4.61A38.41,38.41,0,0,1,318,37.34c.61,1.66-1.61,1.75-5.23,0-10.6-4.78-10.6-4.78-21.69-9.22-3.91-1.44-7.36-4-7.39-5.46a32,32,0,0,0-1.18-6.86c-.14-.78,2.37-.39,5.85.95ZM46.19,75.22c2-2.4,4-4.76,6.09-7.07h0l.7-.77a55.51,55.51,0,0,1,8.34-6.71c1.81-1.11,1.59.14-.31,2.6-5.84,8-5.84,8-11.45,16.64-1.9,3.14-4.84,6.27-6.54,7a46.73,46.73,0,0,0-7.78,4.6c-1.11,1-.32-.72,1.39-3.34,4.67-6.67,4.67-6.67,9.53-12.94v0ZM17.09,254.56c5.84,4.48,5.84,4.48,12.7,9.35,2.53,1.52,4.84,6.38,5,10.45.82,11.43.82,11.43,2,22.08.59,3.62-1.06,4.73-3.42,2.89a155.14,155.14,0,0,1-11.9-10.93,22.61,22.61,0,0,1-4.25-9.23c-1.64-9.93-1.64-9.93-2.85-20.45-.33-3.83.85-5.75,2.67-4.16Zm-10,11.05q-1.3-4.47-2.4-9v-.05C3,248.78,3,248.78,1.73,240.75c-.41-3.1-.37-5,.19-3.61a47.1,47.1,0,0,0,5,7.53c1.21,1.43,2.48,5.52,2.83,9.19,1.3,10.19,1.3,10.19,3.07,19.95.64,3.05.29,4.27-.85,2.48a55.5,55.5,0,0,1-4.59-9.67c-.06-.19-.19-.6-.3-1ZM149.83,7c3-.87,6.06-1.68,9.12-2.41H159c7.55-1.6,7.55-1.6,15.59-2.9,3.31-.42,5-.35,3.81.17a48.62,48.62,0,0,0-7.53,5c-1.43,1.21-5.72,2.52-9.19,2.83-10.19,1.28-10.19,1.28-20,3-3.25.71-4.27.29-2.67-.78a59.25,59.25,0,0,1,9.67-4.59l1-.3.11,0ZM136.36,17.17c9.93-1.62,9.93-1.62,20.46-2.81,3.63-.28,5.54.9,4.14,2.67-4.67,5.89-4.67,5.89-9.36,12.69-1.71,2.58-6.39,4.83-10.46,5-11.43.8-11.43.8-22.25,2.09-3.46.49-4.74-1.06-2.71-3.52,5.48-6.35,5.48-6.35,10.93-11.88,1.73-1.65,5.81-3.52,9.25-4.24ZM243.21,3.89c10.73,2.22,10.73,2.22,21.16,4.85,3.58,1,6.59,2.47,6.76,3.29.14,2.86.14,2.86.17,6.59-.08,1.47-3.51,1.77-7.68.6-12-3-12-3-24.31-5.57-4.25-.77-7.2-2.53-6.44-3.87A45.47,45.47,0,0,1,235.7,3.9c.5-.66,3.84-.66,7.51,0Zm96.86,42.34c2.41,2,4.76,4,7.08,6.08v0c.31.27.62.55.77.7a55.51,55.51,0,0,1,6.71,8.34c1.11,1.81-.14,1.59-2.75-.46-7.87-5.7-7.87-5.7-16.49-11.31-3.15-1.91-6.27-4.83-7-6.54a42.89,42.89,0,0,0-4.78-7.9c-.83-1,.72-.31,3.52,1.51,6.66,4.67,6.66,4.67,12.93,9.53l.05,0Zm-2.35,9.71c8.95,5.66,8.95,5.66,17.18,11.46a22.67,22.67,0,0,1,6.47,7.85c2.37,7.2,2.37,7.2,4.65,15.46.63,2.94-1.2,3.77-4.09,1.83-9.06-5.73-9.06-5.73-19-11.44-3.6-1.93-6.95-6.13-7.37-9.2-1.25-8.16-1.25-8.16-2.75-15.37-.64-2.33,1.6-2.56,4.9-.59Zm33.47,25.3a143.36,143.36,0,0,1,10.55,11.84,72.81,72.81,0,0,1,4.88,7.77,149.32,149.32,0,0,1,6.06,14.66c1,3,.38,3.72-1.28,1.78-5.33-5.5-5.33-5.5-11.57-11.23a21.25,21.25,0,0,1-5.73-9.14A146.09,146.09,0,0,0,369,81.61c-1-2.33.06-2.38,2.16-.37Z"/><path class="cls-1" d="M344,91.63c10.27,5.71,10.27,5.71,19.6,11.36a15.55,15.55,0,0,1,6.19,9.87c1.11,11,1.11,11,1.68,22.6.13,4.22-2.42,6.22-5.63,4.56-10.11-5.19-10.11-5.19-21.14-10.3a13.07,13.07,0,0,1-7.12-11.36c.13-12.29.13-12.29-.13-23.65-.09-3.61,2.8-5,6.55-3.08ZM29.78,101.1a47.42,47.42,0,0,1,7.64-3.94c1.66-.61,1.64,1.79-.13,5.4-4.78,10.61-4.78,10.61-9.22,21.7-1.44,3.91-3.89,7.17-5.45,7.38a53.2,53.2,0,0,0-6.79,1c-.86.32-.47-2.19.87-5.67,4.09-9.76,4.09-9.76,8.46-19,1.63-3.14,3.7-6.26,4.62-6.92Zm115.11-7.2c15,1.89,15,1.89,30.75,4.18,5.5.89,8.86,5.69,7.38,10.73C178.7,124,178.7,124,174.37,140a11.53,11.53,0,0,1-13.13,8.23c-16.21-3.12-16.21-3.12-31.78-5.88-5.19-.86-8-6-6.44-11.32,4.79-15.13,4.79-15.13,9.66-29.49a12.23,12.23,0,0,1,12.21-7.65ZM237.48,19c12.89,2.69,12.89,2.69,25.48,5.84,4.24,1.17,7.74,3.89,7.41,6-.69,6.84-.69,6.84-1.7,14.65-.38,2.94-4.67,4.32-9.53,3C245,44.93,245,44.93,230.63,41.88c-4.95-.93-8.21-4.05-7.27-6.85,2.5-7.48,2.5-7.48,4.85-13.93.8-2,4.94-2.92,9.27-2.13Z"/><path class="cls-1" d="M67.8,149.87c11.4,1.84,11.4,1.84,23.9,3.92,4.49.87,7.08,6.05,5.68,11.49-3.91,16.14-3.91,16.14-7.44,32.5-1.11,5.51-5.7,9.05-10.12,7.87-12.16-3.55-12.16-3.55-23.23-6.87-3.55-1-5.61-6-4.64-11.11,3.19-15,3.19-15,6.83-29.82,1.35-5,5.39-8.63,9-8ZM291.51,34c11.58,4.57,11.58,4.57,22.55,9.41,3.75,1.79,7,5,7.53,7.27,1.11,7.16,1.11,7.16,2.15,15.43.15,2.94-2.88,4.07-7.07,2.19-12.33-5.07-12.33-5.07-25.35-9.92-4.58-1.59-8.22-5.39-7.95-8.34.4-8,.4-8,.66-14.88-.07-2.19,3.3-2.69,7.48-1.16ZM227.8,52c14.87,3.17,14.87,3.17,29.63,6.81,5,1.35,8.64,5.39,8,9-1.83,11.4-1.83,11.4-3.93,23.89-.86,4.49-6,7.08-11.49,5.69-16.13-3.92-16.13-3.92-32.34-7.44-5.64-1.12-9.17-5.71-7.86-10.14,3.42-12.15,3.42-12.15,6.75-23.21,1.13-3.55,6.15-5.6,11.26-4.63ZM113,45.4c10.87-1,10.87-1,22.44-1.6,4.21-.12,6.37,2.35,4.55,5.63-5.19,10.11-5.19,10.11-10.29,21.15a13.07,13.07,0,0,1-11.36,7.11c-12.29-.12-12.29-.12-23.65.14-3.61.1-5-2.8-3.08-6.54C97.3,61,97.3,61,103,51.68a16,16,0,0,1,10-6.28Z"/><path class="cls-1" d="M385.7,165c6.94,4.36,6.94,4.36,12.9,8.48,1.85,1.45,3.28,5.79,3.26,9.94-.42,12-.42,12-1.35,24.41-.45,4.42-2.37,7.24-4.32,6.22-6.32-2.77-6.32-2.77-13.67-5.72-2.76-1.22-4.6-6.15-4-11,1.32-13.65,1.32-13.65,2.11-27.15.17-4.41,2.47-6.82,5.1-5.22ZM165.5,44.09c13.71,1,13.71,1,27.9,2.45,5.06.62,8.08,4,7,7.44-3.78,10.91-3.78,10.91-7.75,22.9-1.41,4.37-7,7.32-12.29,6.49-15.44-2.05-15.44-2.05-30.31-3.63-4.9-.46-7.42-4.28-5.75-8.39C149.17,60,149.17,60,154,49.71c1.73-3.34,6.84-5.84,11.46-5.62ZM197.43,0c10.39.08,10.39.08,20.95.64,3.51.31,6.15,1.06,5.48,1.69C222,4.75,222,4.75,219.8,8c-.68,1.33-4.69,2.11-8.82,1.7-11.93-.84-11.93-.84-23.75-1.15-3.83,0-6-1-4.72-2.26a56.56,56.56,0,0,1,6.67-5.13C190.38.58,194.1.08,197.43,0ZM88.8,90.61c11.43.12,11.43.12,23.86.55,4.42.3,6.64,4.32,4.92,8.93-5,14-5,14-9.85,28.77-1.65,5.25-6.72,9-11.28,8.34C84,135.42,84,135.42,72.54,134.06c-3.7-.4-5.29-4.71-3.73-9.39,4.86-13.42,4.86-13.42,10-26.31,1.83-4.26,6.3-7.76,9.94-7.75Z"/></g></g></svg>