<svg xmlns="http://www.w3.org/2000/svg" viewBox="0 0 199 61.53"><defs><style>.cls-1,.cls-2{fill:#fff;}.cls-1{fill-rule:evenodd;}</style></defs><title>Ресурс 4</title><g id="Слой_2" data-name="Слой 2"><g id="HEADER"><path class="cls-1" d="M47.61,21.46a11.21,11.21,0,0,0,0,3.22A14.83,14.83,0,0,0,49,29.48a3.34,3.34,0,0,0,2.52,2.13c.42.1.83.24,1.63.48s.8,1.08.68,1.67-.28,1.29-.44,2a12.79,12.79,0,0,0,.44,4.88c.36,1,.52,1.38,1.53,1.43l1,0c.33,0,.4.49.17,1.11-3.2,7.35-5.66,11.65-11.82,15A46.81,46.81,0,0,0,52.59,44a2,2,0,0,0-.09-1.85,7.45,7.45,0,0,1-.38-1.61,67.71,67.71,0,0,1-3.71,9.95,44.89,44.89,0,0,1-3.13,5.37c-1.29,1.94-1.55,2.93-3.71,3.74,1.56-2.82,3.91-6.89,5.3-10.11.81-1.88,1.52-3.68,1.3-4.31-.22-.11-.74,1.11-1.11,1.87a127.24,127.24,0,0,1-7.38,13.19c-.78.23-1.56.43-2.36.61a77,77,0,0,0,5.93-11.78,94.5,94.5,0,0,0,4.32-14c.1-.43.19-.85.29-1.25a2.73,2.73,0,0,0-.35-2.54,9.92,9.92,0,0,1-.95-2.8,119.37,119.37,0,0,1-5,19.56,60.86,60.86,0,0,1-7.16,13.22c-.58.08-1.32.15-1.87.19A72.31,72.31,0,0,0,39.7,44.76c.43-1.65.78-3.16.45-3.17A5.88,5.88,0,0,0,39,43.78c-1.64,4.39-5,12.92-8.62,17.75-.77,0-1.4,0-2.22-.1,5.24-7.39,9.53-26,11.4-36.69a8.73,8.73,0,0,1-2.69,3.35,3.38,3.38,0,0,0-1.58,2.21c-.06.45-.12.63-.21,1.07-1.92,8.89-3.71,17.85-8.33,29.91-.6-.08-1.14-.16-1.66-.26,1.07-4.93,1.76-9.25,2.27-12.24.38-2.23.52-3.63.32-3.9s-.58.88-1.31,3.53-1.58,6.47-3,12.24c-.59-.16-1.19-.34-1.85-.56,0-7.08,1.87-16.5,3.75-24.88a8.81,8.81,0,0,1-2.19,2.1c-.93.63-1.39.81-1.58,1.71s-.45,2.14-.67,3.54A131.91,131.91,0,0,0,19.4,59.37c-.48-.19-.88-.38-1.26-.57A48,48,0,0,1,16.83,50c0-.51-.09-1-.13-1.63,0-.42-.16-1.66-.36-1.49a4.33,4.33,0,0,0-.38,2.3A72.32,72.32,0,0,0,16.64,58c-3.42-1.71-3.09-13.78-2.83-17.1a6.69,6.69,0,0,1-2,2.49.74.74,0,0,0-.27.61c0,.12,0,2.12,0,2.13-.08,4.69.28,6.22,2,10.06C11,54.51,8.82,53,7.81,50.05a24.47,24.47,0,0,1-1-5,.85.85,0,0,1,0-.22c-.16-1.62-.16-1.62-.25-3.35,0-.63.35-.92.83-.68,1.13.58,1.41.72,2.18,1.09a1.51,1.51,0,0,0,1.86-.2A8.1,8.1,0,0,0,13,39.9a8.19,8.19,0,0,0,1.56-4.37,1.26,1.26,0,0,1,1.59-1.09c1.95.55,2.21.62,3.78,1a2.58,2.58,0,0,0,2.43-.27,9.36,9.36,0,0,0,3-3.14,12.18,12.18,0,0,0,1.8-4.88,1.69,1.69,0,0,1,2-1.25l4.28,1c2.21.2,4.43-2.14,5.93-4.83a9.08,9.08,0,0,0,1.09-2.9,1.27,1.27,0,0,1,1.68-1c2.23.7,2.23.7,4.37,1.43a1.43,1.43,0,0,1,1.12,1.8ZM58.19,42l1-.17c.11,0,.06.35-.14.86a29,29,0,0,1-6.66,9.94,51.4,51.4,0,0,0,5-9.53c.22-.58.59-1.09.81-1.1ZM9.38,32.48c1.52,0,2.74,1.56,2.74,3.48s-1.22,3.49-2.74,3.49S6.64,37.89,6.64,36s1.23-3.48,2.74-3.48ZM3.54,44.17c.81.84.81.84,1.73,1.69a3.06,3.06,0,0,1,.84,1.33c.36,1.2.36,1.2.75,2.27.15.34,0,.37-.3.08s-.63-.66-.82-.88c-.53-.73-1-1.48-1.48-2.26A1.67,1.67,0,0,0,4,46l-.21-.39c-.12-.27-.23-.56-.45-1.15-.13-.41-.05-.54.19-.26Zm16.76-20a4.09,4.09,0,0,1,3.58,4.49,4,4,0,0,1-4.22,3.85,4.19,4.19,0,0,1,.64-8.34Zm13-8.1a4.29,4.29,0,0,1,4.16,4.13,3.83,3.83,0,0,1-4.16,3.74,4.27,4.27,0,0,1-4.16-4.12A3.84,3.84,0,0,1,33.27,16Zm11.47-5.16a3.93,3.93,0,0,1,3.36,3.5c0,1.61-1.51,2.65-3.36,2.33a3.93,3.93,0,0,1-3.35-3.5c0-1.61,1.5-2.65,3.35-2.33ZM52.12,22c1.52,0,2.74,1.66,2.74,3.61s-1.22,3.5-2.74,3.46-2.73-1.66-2.73-3.61S50.61,22,52.12,22Zm5,11.38c1,0,1.6,1.45,1.33,3.25s-1.32,3.26-2.32,3.26-1.6-1.46-1.32-3.26,1.31-3.25,2.31-3.25Z"/><path class="cls-1" d="M56.6,17.22a20.11,20.11,0,0,1,1.76,1.62A3.09,3.09,0,0,1,59,20.18c.25,1.5.25,1.5.43,3.06,0,.54-.13.83-.4.59-.87-.66-.87-.66-1.88-1.36a2.22,2.22,0,0,1-.75-1.57c-.12-1.7-.12-1.7-.3-3.28-.07-.51.16-.7.52-.4Zm3.89,5c.13.46.26.91.37,1.37h0c.24,1.12.24,1.12.43,2.31.07.49.06.74,0,.56a8.19,8.19,0,0,0-.75-1.14,3.2,3.2,0,0,1-.42-1.36c-.19-1.52-.19-1.52-.44-2.93-.1-.48,0-.64.12-.4A9.61,9.61,0,0,1,60.45,22s0,.09,0,.15Zm.12,4.86a5.83,5.83,0,0,1,.76,1,4.81,4.81,0,0,1,.17,1.22c0,1.54,0,1.54-.1,3.08,0,.55-.15.91-.25.84-.36-.27-.36-.27-.84-.6-.2-.1-.31-.73-.25-1.34.12-1.77.12-1.77.17-3.49,0-.57.15-.89.34-.7Zm-.52,7.44.87.44a2,2,0,0,1,0,1.12c-.32,1.56-.32,1.56-.71,3.1-.15.53-.37,1-.49,1-.42,0-.42,0-1,0-.22,0-.27-.52-.1-1.14.45-1.77.45-1.77.82-3.57.12-.63.38-1.07.58-1ZM1.78,21.36c.42,0,.42,0,1,0,.21,0,.26.52.09,1.14-.45,1.77-.45,1.77-.83,3.6-.11.64-.37,1.07-.58,1l-.86-.45c-.11-.05-.11-.54,0-1.08.33-1.63.33-1.63.73-3.2.15-.53.37-1,.48-1Zm2.78.12,2.18.22c.42.08.63.72.44,1.42-.52,2.11-.52,2.11-1,4.27-.13.71-.6,1.2-1,1.08l-2.07-.74c-.29-.09-.43-.71-.31-1.37.4-1.92.4-1.92.86-3.79.19-.65.58-1.14.89-1.09ZM14.94,4.25a20.52,20.52,0,0,1,2.2-.91c.41-.14.52,0,.24.2-.82.79-.82.79-1.67,1.71a3.06,3.06,0,0,1-1.33.84c-1.2.36-1.2.36-2.29.76-.35.15-.36,0-.06-.32.9-.85.9-.85,1.76-1.56a9.5,9.5,0,0,1,1.15-.72ZM2.82,29.83l2,.87c.41.16.68.89.6,1.6-.19,2.05-.19,2.05-.31,4,0,.68-.37,1-.75.81-1-.65-1-.65-1.92-1.29A2,2,0,0,1,2,34.4c.06-1.81.06-1.81.19-3.65.07-.62.35-1,.64-.92ZM11.15,8c1.09-.37,1.09-.37,2.29-.69.43-.09.58.16.27.61-.85,1.34-.85,1.34-1.7,2.81a2.11,2.11,0,0,1-1.34,1.07c-1.23.21-1.23.21-2.3.43C8,12.31,8,12,8.28,11.49c.84-1.32.84-1.32,1.7-2.54a3.33,3.33,0,0,1,1.17-1ZM.34,28.4a9.78,9.78,0,0,0,.84.58c.2.13.31.72.25,1.33-.12,1.77-.12,1.77-.16,3.49,0,.6-.15.92-.33.73a6.82,6.82,0,0,1-.77-1A3.92,3.92,0,0,1,0,32.29c0-1.51,0-1.51.09-3.07.05-.55.16-.91.25-.82ZM7.5,13.88c1.08-.18,1.08-.18,2.28-.31.44,0,.61.42.33,1-.75,1.83-.75,1.83-1.47,3.76-.23.68-.8,1.22-1.23,1.18l-2.21-.1c-.31,0-.39-.51-.17-1.11.67-1.71.67-1.71,1.41-3.36a2.1,2.1,0,0,1,1.06-1.1ZM27.18,2c1.8.07,1.8.07,3.64.21.63.06,1.05.35.92.64-.44.93-.44.93-.87,2a1.6,1.6,0,0,1-1.6.6c-2.05-.2-2.05-.2-4.05-.31-.65,0-1-.37-.77-.76.64-1,.64-1,1.25-1.91A2.15,2.15,0,0,1,27.18,2Zm15.55.5c1.41.59,1.41.59,2.8,1.25a4,4,0,0,1,1,.69,6,6,0,0,1,.56,1.11c.09.25-.24.26-.78,0-1.57-.71-1.57-.71-3.21-1.37C42.55,4,42,3.57,42,3.35a5.16,5.16,0,0,0-.17-1c0-.12.35-.06.87.14ZM6.85,11.15q.44-.54.9-1.05h0l.1-.12A8.29,8.29,0,0,1,9.09,9c.27-.16.24,0-.05.39-.86,1.18-.86,1.18-1.69,2.46a3,3,0,0,1-1,1,6.47,6.47,0,0,0-1.15.69c-.17.15-.05-.11.2-.5.69-1,.69-1,1.41-1.92ZM2.53,37.72c.87.67.87.67,1.89,1.39a2.14,2.14,0,0,1,.74,1.55c.12,1.69.12,1.69.3,3.27.09.53-.16.7-.51.43a23.47,23.47,0,0,1-1.76-1.62,3.41,3.41,0,0,1-.63-1.37c-.24-1.47-.24-1.47-.42-3-.05-.57.12-.85.39-.62ZM1.05,39.36C.92,38.92.8,38.47.69,38h0C.45,36.87.45,36.87.26,35.68c-.06-.46-.06-.74,0-.54A7.05,7.05,0,0,0,1,36.26a3.25,3.25,0,0,1,.42,1.36c.19,1.51.19,1.51.45,3,.09.45,0,.63-.13.36a8.85,8.85,0,0,1-.68-1.43s0-.09,0-.15ZM22.2,1q.68-.2,1.35-.36h0C24.68.45,24.68.45,25.87.25c.49-.06.74,0,.57,0A6.74,6.74,0,0,0,25.32,1,3.16,3.16,0,0,1,24,1.44c-1.51.19-1.51.19-3,.45-.48.1-.63,0-.4-.12A10.19,10.19,0,0,1,22,1.09l.15,0Zm-2,1.5c1.47-.24,1.47-.24,3-.41.54,0,.82.13.61.39-.69.88-.69.88-1.39,1.88a2.09,2.09,0,0,1-1.55.74c-1.69.12-1.69.12-3.29.31-.51.08-.7-.15-.4-.52a23.47,23.47,0,0,1,1.62-1.76,3.36,3.36,0,0,1,1.37-.63ZM36,.58c1.59.32,1.59.32,3.14.71.53.16,1,.37,1,.49,0,.43,0,.43,0,1,0,.22-.52.26-1.13.09C37.29,2.4,37.29,2.4,35.46,2c-.63-.11-1.07-.37-1-.57a5.47,5.47,0,0,1,.42-.87A1.89,1.89,0,0,1,36,.58ZM50.39,6.85q.54.44,1,.9h0l.12.1a8.29,8.29,0,0,1,1,1.24c.16.26,0,.23-.41-.07C51,8.18,51,8.18,49.7,7.35a2.9,2.9,0,0,1-1-1A6.27,6.27,0,0,0,48,5.21c-.12-.14.11,0,.52.23,1,.69,1,.69,1.92,1.41Zm-.34,1.44c1.32.84,1.32.84,2.54,1.7a3.31,3.31,0,0,1,1,1.16c.35,1.07.35,1.07.69,2.29.09.44-.18.56-.61.27-1.34-.85-1.34-.85-2.81-1.69a2.25,2.25,0,0,1-1.09-1.36c-.19-1.21-.19-1.21-.41-2.28-.1-.35.24-.38.73-.09ZM55,12a22.54,22.54,0,0,1,1.56,1.75,11.59,11.59,0,0,1,.72,1.15,21.57,21.57,0,0,1,.9,2.18c.14.44.06.55-.19.26-.79-.81-.79-.81-1.71-1.66a3.14,3.14,0,0,1-.85-1.36,22.36,22.36,0,0,0-.76-2.27c-.14-.34,0-.35.33-.05Z"/><path class="cls-2" d="M73.23,49.47V42.85H77v.85H74.17v2h2.75v.85H74.17v3ZM118.84,15H73.23v-.8h45.61V15Zm10,2.29V12.64h-2v-.7h4.73v.7h-2v4.69Zm5.43,0V11.94H135v2.32h3.12V11.94h.76v5.39h-.76V15H135v2.34Zm7.84,0V11.94h3.25v.69h-2.48v1.63h2.41V15h-2.41v1.68h2.56v.69ZM199,15H153.39v-.8H199V15ZM85.86,46.17a2.66,2.66,0,0,0,.19,1,2.59,2.59,0,0,0,.55.81,2.38,2.38,0,0,0,.81.55,2.66,2.66,0,0,0,1,.19,2.48,2.48,0,0,0,1-.19,2.33,2.33,0,0,0,.81-.55,2.59,2.59,0,0,0,.55-.81,2.47,2.47,0,0,0,.19-1,2.38,2.38,0,0,0-.19-1,2.45,2.45,0,0,0-.56-.82,2.27,2.27,0,0,0-.81-.56,2.43,2.43,0,0,0-1-.19,2.41,2.41,0,0,0-.95.19,2.59,2.59,0,0,0-.83.56,2.38,2.38,0,0,0-.55.81,2.62,2.62,0,0,0-.19,1Zm-1,0a3.16,3.16,0,0,1,.27-1.28,3.11,3.11,0,0,1,.76-1.1A3.46,3.46,0,0,1,87,43a3.73,3.73,0,0,1,2.71,0,3.17,3.17,0,0,1,1.13.74,3.21,3.21,0,0,1,.78,1.11,3.48,3.48,0,0,1,.26,1.34,3.26,3.26,0,0,1-.27,1.3,3.3,3.3,0,0,1-.76,1.09,3.46,3.46,0,0,1-1.15.75,3.73,3.73,0,0,1-2.71,0,3.45,3.45,0,0,1-1.14-.74,3.26,3.26,0,0,1-.77-1.12,3.34,3.34,0,0,1-.26-1.34ZM100,42.85H101v3.8a4.33,4.33,0,0,0,.07.9,1.17,1.17,0,0,0,.23.46,2,2,0,0,0,.7.52,2.34,2.34,0,0,0,.91.17,2.07,2.07,0,0,0,1.39-.45,1.44,1.44,0,0,0,.52-1.17V42.85h.94v4.26A2.25,2.25,0,0,1,105,48.9a3,3,0,0,1-2.06.69,3.34,3.34,0,0,1-1.36-.27,2.79,2.79,0,0,1-1-.78,1.83,1.83,0,0,1-.36-.69,4.58,4.58,0,0,1-.11-1.16V42.85Zm14.19,6.62V42.85h.83L119.42,48V42.85h.94v6.62h-.84l-4.35-5.14v5.14Zm17.08-5.71h-1.49v4.81h1.49a2.74,2.74,0,0,0,1.93-.64,2.58,2.58,0,0,0,0-3.53,2.74,2.74,0,0,0-1.93-.64Zm0-.91a5.1,5.1,0,0,1,1.26.14,3,3,0,0,1,1,.44,3.13,3.13,0,0,1,1,1.16,3.45,3.45,0,0,1,.36,1.57,3.49,3.49,0,0,1-.36,1.58,3.22,3.22,0,0,1-1,1.16,3.17,3.17,0,0,1-1,.44,5.14,5.14,0,0,1-1.26.13h-2.43V42.85Zm12.95,3.82h2.06l-1-2.38-1,2.38Zm-2.18,2.8,2.86-6.62h.69l2.91,6.62h-1l-.85-1.94h-2.82l-.84,1.94Zm15.15,0V43.72h-2.44v-.87h5.81v.87h-2.43v5.75Zm11.28,0V42.85h1v6.62Zm10.15-3.3a2.47,2.47,0,0,0,.19,1,2.55,2.55,0,0,0,.54.81,2.38,2.38,0,0,0,.81.55,2.71,2.71,0,0,0,1,.19,2.43,2.43,0,0,0,1-.19A2.37,2.37,0,0,0,183,48a2.55,2.55,0,0,0,.54-.81,2.48,2.48,0,0,0,.2-1,2.57,2.57,0,0,0-.19-1,2.78,2.78,0,0,0-.56-.82,2.46,2.46,0,0,0-1.78-.75,2.45,2.45,0,0,0-1,.19,2.7,2.7,0,0,0-.83.56,2.35,2.35,0,0,0-.54.81,2.43,2.43,0,0,0-.19,1Zm-1,0a3.16,3.16,0,0,1,.27-1.28,3.27,3.27,0,0,1,.77-1.1,3.42,3.42,0,0,1,1.14-.75,3.63,3.63,0,0,1,1.35-.25,3.5,3.5,0,0,1,1.36.26,3.37,3.37,0,0,1,2.17,3.19,3.25,3.25,0,0,1-.26,1.3,3.3,3.3,0,0,1-.76,1.09,3.5,3.5,0,0,1-2.51,1,3.73,3.73,0,0,1-1.36-.26,3.31,3.31,0,0,1-1.13-.74,3.43,3.43,0,0,1-.78-1.12,3.52,3.52,0,0,1-.26-1.34Zm15.23,3.34V42.85h.82L198.06,48V42.85H199v6.62h-.84l-4.34-5.14v5.14Z"/><path class="cls-2" d="M73.23,38V21.81h4.41V34.44h6.21V38Zm59.44,0V21.81h4.18l7,10.13V21.81H148V38H143.8l-7-10.13V38Zm51,0V21.81h4.18l7,10.13V21.81H199V38h-4.16l-7-10.13,0,10.13Zm-1.94-8.08a7.91,7.91,0,0,1-.63,3.15,7.71,7.71,0,0,1-1.86,2.63,8.87,8.87,0,0,1-2.84,1.78,9.12,9.12,0,0,1-6.61,0,8.77,8.77,0,0,1-2.8-1.77A8.14,8.14,0,0,1,165.16,33a7.94,7.94,0,0,1,0-6.27,8.06,8.06,0,0,1,1.9-2.65,8.36,8.36,0,0,1,2.78-1.77,9.16,9.16,0,0,1,6.65,0,8.49,8.49,0,0,1,2.79,1.77,8,8,0,0,1,1.86,2.64,7.82,7.82,0,0,1,.64,3.15Zm-8.63,4.57a3.94,3.94,0,0,0,3-1.3,4.65,4.65,0,0,0,1.2-3.27,5.13,5.13,0,0,0-.3-1.79,4.45,4.45,0,0,0-.91-1.47,4,4,0,0,0-3-1.31,3.92,3.92,0,0,0-3,1.3,4.61,4.61,0,0,0-1.21,3.27,4.64,4.64,0,0,0,1.18,3.29,3.92,3.92,0,0,0,3,1.28Zm-21.62-2.28a10.34,10.34,0,0,0,5.92,2.55c.67,0,1.57-.16,1.82-.82.63-1.69-2.2-2.18-3.87-2.73-2.49-.83-4.48-2.19-4.48-4.42A4.79,4.79,0,0,1,152.52,23c2.62-2.33,8.35-1.38,11,.36l-1.47,3.27c-1.48-1-5.22-2.18-6.41-1.41a1.17,1.17,0,0,0-.48.68c-.49,1.51,3.64,2.24,5.12,2.83a4.63,4.63,0,0,1,1.52,8c-3.19,2.82-9.16,1.46-12.07-1.21l1.76-3.35ZM86.46,38V21.81h12v3.55H90.75v2.8h7v3.46h-7v2.82h7.71V38Zm20,0L99.66,21.81h4.67l3.24,9,.17.7.37,1.47.33-1.34.23-.83,3.21-9h4.68L109.78,38Zm11.94,0V21.81h12v3.55h-7.71v2.8h7v3.46h-7v2.81h7.71V38Z"/><path class="cls-1" d="M51,13.58c1.52.84,1.52.84,2.9,1.68a2.32,2.32,0,0,1,.92,1.46c.16,1.64.16,1.64.25,3.35,0,.63-.36.92-.84.68-1.5-.77-1.5-.77-3.13-1.53a1.9,1.9,0,0,1-1-1.68c0-1.82,0-1.82,0-3.51,0-.53.41-.74,1-.45ZM4.41,15a7.54,7.54,0,0,1,1.14-.58c.24-.09.24.26,0,.8-.71,1.57-.71,1.57-1.37,3.21-.21.58-.58,1.07-.81,1.1a7.14,7.14,0,0,0-1,.15c-.13,0-.07-.33.12-.84.61-1.45.61-1.45,1.26-2.81a4.33,4.33,0,0,1,.68-1Zm17.06-1.07c2.23.28,2.23.28,4.56.62a1.26,1.26,0,0,1,1.09,1.59c-.64,2.26-.64,2.26-1.28,4.63A1.72,1.72,0,0,1,23.89,22c-2.4-.47-2.4-.47-4.71-.87a1.26,1.26,0,0,1-.95-1.68c.71-2.24.71-2.24,1.43-4.37a1.81,1.81,0,0,1,1.81-1.14ZM35.19,2.81c1.91.4,1.91.4,3.78.87.63.17,1.14.57,1.1.88-.11,1-.11,1-.26,2.17-.05.43-.69.64-1.41.44-2.09-.51-2.09-.51-4.22-1-.74-.14-1.22-.6-1.08-1,.37-1.11.37-1.11.72-2.06.12-.3.73-.44,1.37-.32Z"/><path class="cls-1" d="M10.05,22.21l3.54.58a1.31,1.31,0,0,1,.84,1.7c-.58,2.39-.58,2.39-1.1,4.82a1.3,1.3,0,0,1-1.5,1.16l-3.44-1a1.38,1.38,0,0,1-.69-1.65c.47-2.23.47-2.23,1-4.42.2-.74.8-1.28,1.34-1.18ZM43.2,5c1.71.68,1.71.68,3.34,1.39A2.17,2.17,0,0,1,47.66,7.5c.16,1.06.16,1.06.31,2.29,0,.43-.42.6-1,.32-1.83-.75-1.83-.75-3.76-1.47C42.49,8.41,42,7.84,42,7.41c.06-1.18.06-1.18.1-2.21,0-.32.49-.4,1.11-.17ZM33.76,7.7c2.2.47,2.2.47,4.39,1,.74.2,1.28.8,1.18,1.34-.27,1.69-.27,1.69-.58,3.54a1.3,1.3,0,0,1-1.7.84c-2.4-.58-2.4-.58-4.8-1.1-.83-.17-1.36-.85-1.16-1.5.51-1.8.51-1.8,1-3.44a1.43,1.43,0,0,1,1.67-.69Zm-17-1c1.61-.15,1.61-.15,3.33-.24.62,0,.94.35.67.83-.77,1.5-.77,1.5-1.52,3.14a1.94,1.94,0,0,1-1.69,1c-1.82,0-1.82,0-3.5,0-.53,0-.75-.41-.46-1,.85-1.52.85-1.52,1.69-2.9a2.34,2.34,0,0,1,1.48-.93Z"/><path class="cls-1" d="M57.16,24.45c1,.65,1,.65,1.91,1.26a2.14,2.14,0,0,1,.48,1.47c-.06,1.78-.06,1.78-.2,3.62-.07.66-.35,1.07-.64.92-.94-.41-.94-.41-2-.85a1.62,1.62,0,0,1-.59-1.62c.19-2,.19-2,.31-4,0-.66.37-1,.76-.78ZM24.53,6.53c2,.15,2,.15,4.13.37.75.09,1.2.58,1,1.1-.56,1.62-.56,1.62-1.14,3.39a1.65,1.65,0,0,1-1.82,1c-2.29-.3-2.29-.3-4.5-.53a.9.9,0,0,1-.85-1.25c.73-1.67.73-1.67,1.45-3.2a1.91,1.91,0,0,1,1.7-.84ZM29.26,0c1.54,0,1.54,0,3.1.1.52,0,.91.15.81.25-.27.35-.27.35-.6.83-.1.2-.69.32-1.31.26-1.76-.13-1.76-.13-3.52-.17-.56,0-.88-.16-.69-.34a8.79,8.79,0,0,1,1-.76A4.41,4.41,0,0,1,29.26,0ZM13.16,13.43c1.69,0,1.69,0,3.53.08a.89.89,0,0,1,.73,1.32c-.73,2.07-.73,2.07-1.46,4.26a1.68,1.68,0,0,1-1.67,1.24c-1.84-.26-1.84-.26-3.54-.46-.55-.06-.78-.7-.55-1.4.72-2,.72-2,1.49-3.9a1.86,1.86,0,0,1,1.47-1.14Z"/></g></g></svg>