<svg xmlns="http://www.w3.org/2000/svg" viewBox="0 0 197.8 61.16"><defs><style>.cls-1{fill:#264368;}.cls-1,.cls-2,.cls-5,.cls-6,.cls-7{fill-rule:evenodd;}.cls-2{fill:#64b0b9;}.cls-3{fill:#292929;}.cls-4,.cls-5{fill:#3d6d86;}.cls-6{fill:#71c8fc;}.cls-7{fill:#8ffff9;}</style></defs><title>logo-blue</title><g id="Слой_2" data-name="Слой 2"><g id="header"><path class="cls-1" d="M47.33,21.33a11.44,11.44,0,0,0,0,3.2,15,15,0,0,0,1.35,4.78,3.35,3.35,0,0,0,2.51,2.11c.42.1.82.24,1.62.48s.79,1.07.68,1.66-.28,1.28-.44,1.94a12.69,12.69,0,0,0,.44,4.86c.35,1,.52,1.36,1.52,1.42l1,0c.32,0,.4.48.17,1.1C53,50.22,50.54,54.5,44.42,57.86a46.15,46.15,0,0,0,7.85-14.14,2,2,0,0,0-.09-1.84,7.23,7.23,0,0,1-.37-1.6,67.62,67.62,0,0,1-3.69,9.89A44.48,44.48,0,0,1,45,55.52c-1.28,1.92-1.54,2.9-3.69,3.71,1.55-2.8,3.89-6.84,5.27-10,.8-1.87,1.51-3.65,1.29-4.28-.22-.11-.73,1.1-1.1,1.86a126.49,126.49,0,0,1-7.34,13.1c-.77.23-1.55.44-2.35.61A75.52,75.52,0,0,0,43,48.76a92.92,92.92,0,0,0,4.29-13.91c.1-.43.19-.84.29-1.25a2.69,2.69,0,0,0-.35-2.52,10,10,0,0,1-.94-2.78,118.92,118.92,0,0,1-5,19.44,60.8,60.8,0,0,1-7.11,13.14c-.59.08-1.31.15-1.87.19a71.73,71.73,0,0,0,7.12-16.58c.43-1.64.77-3.14.44-3.15a6.25,6.25,0,0,0-1.11,2.18c-1.62,4.36-5,12.84-8.56,17.64-.77,0-1.39,0-2.21-.1,5.21-7.35,9.47-25.83,11.33-36.47a8.71,8.71,0,0,1-2.67,3.33,3.38,3.38,0,0,0-1.57,2.2c-.07.44-.12.62-.21,1.06C33,40,31.21,48.92,26.62,60.91c-.6-.08-1.14-.16-1.65-.25,1.06-4.91,1.74-9.2,2.25-12.17.38-2.22.53-3.62.32-3.88s-.57.88-1.29,3.51-1.58,6.43-3,12.16c-.58-.15-1.18-.33-1.84-.55,0-7,1.85-16.4,3.73-24.73A8.84,8.84,0,0,1,23,37.08c-.93.63-1.38.81-1.57,1.7s-.45,2.13-.66,3.52A132.23,132.23,0,0,0,19.28,59c-.47-.19-.87-.38-1.25-.57a47.44,47.44,0,0,1-1.3-8.74c-.05-.51-.09-1-.13-1.62,0-.42-.16-1.65-.36-1.48a4.37,4.37,0,0,0-.38,2.28,73.47,73.47,0,0,0,.68,8.8c-3.4-1.7-3.08-13.69-2.81-17a6.73,6.73,0,0,1-2,2.48.71.71,0,0,0-.27.6c0,.12,0,2.11,0,2.12-.08,4.66.28,6.19,1.94,10-2.49-1.7-4.62-3.22-5.63-6.13a23.66,23.66,0,0,1-1-5,.93.93,0,0,1,0-.22C6.55,43,6.55,43,6.46,41.23c0-.62.35-.92.82-.67,1.13.57,1.4.71,2.17,1.08a1.51,1.51,0,0,0,1.85-.2,7.77,7.77,0,0,0,1.6-1.78,8.09,8.09,0,0,0,1.55-4.34A1.25,1.25,0,0,1,16,34.23c1.94.54,2.2.62,3.76,1A2.56,2.56,0,0,0,22.2,35a9.26,9.26,0,0,0,3-3.12A12,12,0,0,0,27,27a1.68,1.68,0,0,1,2-1.24c2.24.5,2.54.57,4.26,1,2.2.2,4.4-2.13,5.89-4.8a9,9,0,0,0,1.09-2.89,1.26,1.26,0,0,1,1.67-.95c2.21.7,2.21.7,4.34,1.43a1.42,1.42,0,0,1,1.12,1.78ZM57.84,41.76c.57-.09.57-.09,1-.18.12,0,.06.35-.14.87a28.75,28.75,0,0,1-6.62,9.87A50.75,50.75,0,0,0,57,42.85c.21-.58.58-1.09.8-1.09ZM9.33,32.28c1.5,0,2.72,1.55,2.72,3.47s-1.22,3.46-2.72,3.46S6.6,37.66,6.6,35.75s1.22-3.47,2.73-3.47ZM3.52,43.9a23,23,0,0,0,1.72,1.68,3,3,0,0,1,.83,1.32c.36,1.2.36,1.2.75,2.26.15.34,0,.37-.3.08l-.82-.87c-.52-.73-1-1.48-1.46-2.25A2,2,0,0,0,4,45.69l-.22-.38-.44-1.14c-.13-.41-.05-.55.19-.27ZM20.18,24a4.17,4.17,0,0,1-.64,8.29A4.06,4.06,0,0,1,16,27.81,4,4,0,0,1,20.18,24Zm12.89-8A4.25,4.25,0,0,1,37.21,20a3.83,3.83,0,0,1-4.14,3.73,4.26,4.26,0,0,1-4.14-4.1,3.82,3.82,0,0,1,4.14-3.72Zm11.4-5.14a3.92,3.92,0,0,1,3.34,3.48c0,1.6-1.5,2.64-3.34,2.32a3.9,3.9,0,0,1-3.33-3.48c0-1.6,1.49-2.64,3.33-2.32Zm7.34,11.12c1.5,0,2.72,1.65,2.72,3.59S53.31,29,51.81,28.93s-2.72-1.65-2.72-3.59,1.22-3.47,2.72-3.43Zm4.95,11.3c1,0,1.59,1.45,1.31,3.24s-1.3,3.24-2.3,3.24-1.59-1.45-1.31-3.24,1.3-3.24,2.3-3.24Z"/><path class="cls-2" d="M56.26,17.12A23.36,23.36,0,0,1,58,18.73a3.11,3.11,0,0,1,.62,1.33c.25,1.49.25,1.49.42,3,0,.54-.13.82-.4.59-.86-.66-.86-.66-1.86-1.35A2.24,2.24,0,0,1,56,20.77c-.12-1.68-.12-1.68-.29-3.25-.08-.51.15-.7.51-.4Zm3.87,4.94c.13.45.25.9.36,1.36h0c.23,1.11.23,1.11.42,2.29.07.49.06.74,0,.56a9,9,0,0,0-.74-1.14,3,3,0,0,1-.42-1.35c-.19-1.5-.19-1.5-.44-2.91-.1-.48,0-.63.12-.39a8.18,8.18,0,0,1,.67,1.42l.05.15Zm.11,4.83a5.41,5.41,0,0,1,.76,1,4.81,4.81,0,0,1,.17,1.22c0,1.53,0,1.53-.1,3.05,0,.55-.15.91-.25.84-.35-.27-.35-.27-.83-.6-.2-.1-.31-.72-.25-1.33.12-1.75.12-1.75.17-3.47,0-.56.15-.88.33-.69Zm-.51,7.39c.49.24.49.24.86.44a1.9,1.9,0,0,1,0,1.11c-.32,1.55-.32,1.55-.71,3.09-.15.52-.36,1-.48,1l-1,0c-.22,0-.26-.52-.09-1.13.44-1.77.44-1.77.81-3.55.12-.63.38-1.07.58-1Zm-58-13a9.15,9.15,0,0,1,1,0c.22,0,.26.52.09,1.13-.44,1.77-.44,1.77-.82,3.59-.11.62-.37,1.06-.57,1-.5-.24-.5-.24-.87-.44-.1-.05-.1-.54,0-1.08.33-1.61.33-1.61.72-3.18.15-.53.37-1,.48-1Zm2.76.11,2.17.22c.42.08.62.71.44,1.41-.52,2.1-.52,2.1-1,4.25-.13.7-.59,1.18-1,1.07l-2.05-.74c-.3-.09-.44-.7-.32-1.36.4-1.91.4-1.91.86-3.76.18-.65.57-1.14.88-1.09ZM14.85,4.22A21.62,21.62,0,0,1,17,3.32c.41-.14.52,0,.23.2-.81.78-.81.78-1.65,1.7a3,3,0,0,1-1.33.83c-1.19.36-1.19.36-2.27.76-.35.15-.36,0-.06-.32.89-.84.89-.84,1.75-1.55a9.4,9.4,0,0,1,1.14-.72Zm-12,25.43,2,.87c.41.15.68.88.6,1.59-.19,2-.19,2-.31,4,0,.68-.37,1-.75.8-1-.64-1-.64-1.9-1.27A2,2,0,0,1,2,34.19C2,32.4,2,32.4,2.17,30.57c.07-.63.35-1,.64-.92ZM11.08,7.94a20.55,20.55,0,0,1,2.28-.68c.43-.1.58.16.27.6-.85,1.33-.85,1.33-1.69,2.8a2.1,2.1,0,0,1-1.33,1.06c-1.23.21-1.23.21-2.29.43-.34.09-.37-.24-.09-.72.84-1.32.84-1.32,1.69-2.54a3.6,3.6,0,0,1,1.16-1ZM.34,28.23a8,8,0,0,0,.84.57,1.84,1.84,0,0,1,.25,1.33c-.13,1.76-.13,1.76-.17,3.47,0,.59-.15.91-.33.72a6.83,6.83,0,0,1-.76-1A4,4,0,0,1,0,32.1C0,30.6,0,30.6.09,29c.05-.55.16-.91.25-.81ZM7.45,13.8c1.08-.18,1.08-.18,2.28-.32.43,0,.6.43.32,1-.75,1.81-.75,1.81-1.46,3.73-.24.67-.8,1.21-1.23,1.17l-2.19-.1c-.31,0-.39-.51-.17-1.1.67-1.7.67-1.7,1.4-3.34.25-.53.73-1,1-1.09ZM27,2c1.8.06,1.8.06,3.63.2.62.07,1,.35.91.64-.43.93-.43.93-.87,2a1.59,1.59,0,0,1-1.59.6c-2-.2-2-.2-4-.31-.65,0-1-.37-.77-.75.64-1,.64-1,1.25-1.91A2.1,2.1,0,0,1,27,2Zm15.46.49c1.41.59,1.41.59,2.79,1.25a4.12,4.12,0,0,1,1,.68,5.47,5.47,0,0,1,.55,1.11c.09.24-.23.26-.77,0-1.56-.71-1.56-.71-3.19-1.36-.58-.22-1.09-.59-1.09-.81a5.16,5.16,0,0,0-.17-1c0-.11.34,0,.86.14ZM6.8,11.08c.3-.35.59-.7.9-1h0l.11-.12A7.16,7.16,0,0,1,9,8.94c.26-.17.23,0,0,.38-.86,1.18-.86,1.18-1.69,2.45a3.18,3.18,0,0,1-1,1,7.26,7.26,0,0,0-1.15.67c-.16.15,0-.1.21-.49.69-1,.69-1,1.4-1.9ZM2.52,37.49c.86.67.86.67,1.87,1.38a2.16,2.16,0,0,1,.74,1.54c.12,1.68.12,1.68.3,3.25.08.54-.16.7-.51.43a23.36,23.36,0,0,1-1.75-1.61,3.43,3.43,0,0,1-.63-1.36c-.24-1.46-.24-1.46-.42-3,0-.57.13-.85.4-.62ZM1,39.12c-.13-.44-.25-.88-.35-1.33h0C.45,36.64.45,36.64.25,35.46c0-.46,0-.74,0-.53A7.13,7.13,0,0,0,1,36a3.11,3.11,0,0,1,.42,1.35c.19,1.5.19,1.5.45,2.94.09.45,0,.63-.13.37a8,8,0,0,1-.67-1.43L1,39.12ZM22.07,1C22.51.9,23,.79,23.41.68h0c1.11-.24,1.11-.24,2.3-.43.48-.06.73,0,.56,0A6.38,6.38,0,0,0,25.17,1a3.16,3.16,0,0,1-1.36.42c-1.5.19-1.5.19-2.94.44-.47.11-.62,0-.39-.11a10,10,0,0,1,1.42-.68l.15,0Zm-2,1.5c1.47-.24,1.47-.24,3-.42.53,0,.81.14.61.4-.69.87-.69.87-1.38,1.87a2.12,2.12,0,0,1-1.54.73c-1.68.12-1.68.12-3.28.31-.51.07-.7-.15-.4-.52.81-.93.81-.93,1.61-1.75a3.44,3.44,0,0,1,1.36-.62Zm15.74-2c1.58.33,1.58.33,3.12.72.53.15,1,.36,1,.48,0,.42,0,.42,0,1,0,.22-.52.26-1.13.09-1.77-.44-1.77-.44-3.58-.82-.63-.11-1.06-.37-1-.57a5.47,5.47,0,0,1,.42-.87,2.05,2.05,0,0,1,1.1,0ZM50.09,6.81l1,.89h0l.12.1a8,8,0,0,1,1,1.23c.17.27,0,.23-.4-.07-1.16-.84-1.16-.84-2.43-1.66a3.09,3.09,0,0,1-1-1,6,6,0,0,0-.7-1.16c-.12-.15.11,0,.52.22,1,.69,1,.69,1.9,1.41Zm-.35,1.43c1.32.83,1.32.83,2.53,1.69a3.39,3.39,0,0,1,1,1.15c.35,1.06.35,1.06.68,2.28.1.43-.17.56-.6.27-1.34-.84-1.34-.84-2.8-1.69a2.18,2.18,0,0,1-1.08-1.35c-.19-1.2-.19-1.2-.41-2.26-.09-.35.24-.38.72-.09ZM54.67,12a20.74,20.74,0,0,1,1.56,1.74c.22.3.54.82.72,1.14.47,1,.47,1,.89,2.16.14.44,0,.55-.19.27-.78-.81-.78-.81-1.7-1.66a3.17,3.17,0,0,1-.85-1.34A23,23,0,0,0,54.36,12c-.15-.34,0-.35.31,0Z"/><path class="cls-3" d="M72.79,49.18V42.6h3.75v.83H73.73v2h2.72v.85H73.73v3ZM118.13,15H72.79v-.8h45.34V15Zm9.9,2.28V12.57h-2v-.7h4.7v.7h-2v4.66Zm5.4,0V11.87h.76v2.31h3.09V11.87H138v5.36h-.76V14.9h-3.09v2.33Zm7.8,0V11.87h3.23v.68H142v1.63h2.39v.69H142v1.67h2.54v.69ZM197.8,15H152.47v-.8H197.8V15ZM85.35,45.89a2.56,2.56,0,0,0,.18,1,2.38,2.38,0,0,0,.55.81,2.1,2.1,0,0,0,.8.54,2.47,2.47,0,0,0,1,.19,2.61,2.61,0,0,0,1-.18,2.43,2.43,0,0,0,.81-.55,2.22,2.22,0,0,0,.54-.81,2.38,2.38,0,0,0,.19-1,2.55,2.55,0,0,0-.18-1,2.6,2.6,0,0,0-.56-.82,2.24,2.24,0,0,0-.81-.55,2.5,2.5,0,0,0-1.91,0,2.63,2.63,0,0,0-.82.55,2.44,2.44,0,0,0-.55.8,2.65,2.65,0,0,0-.18,1Zm-1,0a3.16,3.16,0,0,1,.27-1.28,3.37,3.37,0,0,1,.77-1.1,3.51,3.51,0,0,1,1.13-.74,3.79,3.79,0,0,1,1.34-.25,3.7,3.7,0,0,1,1.36.26,3.48,3.48,0,0,1,1.13.73,3.58,3.58,0,0,1,.77,1.11,3.43,3.43,0,0,1,.26,1.33,3.17,3.17,0,0,1-.27,1.29,3.42,3.42,0,0,1-.75,1.09A3.83,3.83,0,0,1,89.2,49a3.67,3.67,0,0,1-2.69,0,3.44,3.44,0,0,1-1.13-.73,3.4,3.4,0,0,1-1-2.44Zm15.1-3.26h.93v3.77a4.48,4.48,0,0,0,.07.9,1.2,1.2,0,0,0,.23.45,2,2,0,0,0,.69.52,2.38,2.38,0,0,0,.91.16,2,2,0,0,0,1.38-.44,1.43,1.43,0,0,0,.52-1.16V42.6h.93v4.22a2.27,2.27,0,0,1-.78,1.79,3,3,0,0,1-2,.68,3.42,3.42,0,0,1-1.35-.26,2.67,2.67,0,0,1-1-.78,1.86,1.86,0,0,1-.36-.68,4.64,4.64,0,0,1-.11-1.16V42.6Zm14.1,6.58V42.6h.82l4.34,5.1V42.6h.93v6.58h-.83l-4.32-5.12v5.12Zm17-5.69H129v4.79h1.48a2.69,2.69,0,0,0,1.91-.64,2.55,2.55,0,0,0,0-3.51,2.74,2.74,0,0,0-1.91-.64Zm0-.89a5.05,5.05,0,0,1,1.25.13,3.14,3.14,0,0,1,2,1.59,3.44,3.44,0,0,1,.36,1.56,3.33,3.33,0,0,1-.37,1.57,3.12,3.12,0,0,1-2,1.59,5.21,5.21,0,0,1-1.26.14H128.1V42.6Zm12.87,3.79h2.05l-1-2.37-1,2.37Zm-2.17,2.79,2.85-6.58h.69l2.88,6.58h-1l-.85-1.94H143l-.84,1.94Zm15.06,0V43.45h-2.42V42.6h5.77v.85h-2.42v5.73Zm11.21,0V42.6h.95v6.58Zm10.09-3.29a2.38,2.38,0,0,0,.19,1,2.35,2.35,0,0,0,.54.81,2.22,2.22,0,0,0,.81.54,2.45,2.45,0,0,0,1,.19,2.67,2.67,0,0,0,1-.18,2.43,2.43,0,0,0,.81-.55,2.5,2.5,0,0,0,.54-.81,2.5,2.5,0,0,0,0-1.91,2.57,2.57,0,0,0-.55-.82,2.43,2.43,0,0,0-.81-.55,2.47,2.47,0,0,0-1-.19,2.36,2.36,0,0,0-.94.19,2.56,2.56,0,0,0-.83.55,2.41,2.41,0,0,0-.54.8,2.47,2.47,0,0,0-.19,1Zm-1,0a3.16,3.16,0,0,1,.27-1.28,3.34,3.34,0,0,1,.76-1.1,3.55,3.55,0,0,1,1.14-.74,3.74,3.74,0,0,1,1.33-.25,3.66,3.66,0,0,1,1.36.26,3.28,3.28,0,0,1,1.13.73,3.42,3.42,0,0,1,.77,1.11,3.25,3.25,0,0,1,.26,1.33,3.34,3.34,0,0,1-.26,1.29,3.3,3.3,0,0,1-.76,1.09,3.63,3.63,0,0,1-3.84.73,3.54,3.54,0,0,1-1.13-.73,3.26,3.26,0,0,1-.77-1.12,3.41,3.41,0,0,1-.26-1.32Zm15.13,3.32V42.6h.82l4.34,5.1V42.6h.93v6.58H197l-4.31-5.12v5.12Z"/><path class="cls-4" d="M72.79,37.74V21.68h4.38V34.24h6.17v3.5Zm59.08,0V21.68H136l6.92,10.07V21.68h4.13V37.74h-4.13L136,27.67V37.74Zm50.73,0V21.68h4.15l6.92,10.07V21.68h4.13V37.74h-4.13l-6.93-10.07V37.74Zm-1.92-8a7.66,7.66,0,0,1-2.48,5.74,8.75,8.75,0,0,1-2.82,1.77,9,9,0,0,1-6.57,0A8.53,8.53,0,0,1,166,35.46a8.07,8.07,0,0,1-1.85-2.62,7.77,7.77,0,0,1-.65-3.13,7.61,7.61,0,0,1,.64-3.12A8,8,0,0,1,166,24a8.56,8.56,0,0,1,2.77-1.76,9.16,9.16,0,0,1,6.6,0A8.35,8.35,0,0,1,178.19,24,7.82,7.82,0,0,1,180,26.58a7.69,7.69,0,0,1,.64,3.13Zm-8.58,4.55a3.94,3.94,0,0,0,3-1.3,4.62,4.62,0,0,0,1.19-3.25,5,5,0,0,0-.3-1.77,4.2,4.2,0,0,0-.91-1.47,4.11,4.11,0,0,0-6,0,4.6,4.6,0,0,0-1.2,3.25A4.65,4.65,0,0,0,169.07,33a3.94,3.94,0,0,0,3,1.28ZM150.61,32a10.26,10.26,0,0,0,5.89,2.53c.66,0,1.55-.15,1.8-.81.63-1.69-2.18-2.17-3.84-2.72C152,30.17,150,28.82,150,26.6a4.73,4.73,0,0,1,1.6-3.7c2.61-2.33,8.3-1.38,11,.35l-1.46,3.25c-1.48-1-5.2-2.16-6.38-1.41a1.23,1.23,0,0,0-.48.69c-.48,1.5,3.62,2.22,5.1,2.81a4.6,4.6,0,0,1,1.51,7.93c-3.17,2.81-9.11,1.45-12-1.2L150.61,32ZM85.94,37.74V21.68H97.87v3.53H90.2V28h7v3.44h-7v2.8h7.67v3.51Zm19.85,0L99.06,21.68h4.65l3.21,9,.17.69.37,1.46.33-1.33.22-.82,3.2-9h4.65l-6.74,16.06Zm11.87,0V21.68H129.6v3.53h-7.67V28h7v3.44h-7v2.8h7.67v3.51Z"/><path class="cls-5" d="M50.67,13.5c1.51.84,1.51.84,2.89,1.67a2.32,2.32,0,0,1,.91,1.45c.16,1.63.16,1.63.24,3.33,0,.62-.35.92-.82.67-1.49-.76-1.49-.76-3.12-1.51a1.94,1.94,0,0,1-1.05-1.68c0-1.81,0-1.81,0-3.48,0-.53.42-.74,1-.45ZM4.39,14.89a7.26,7.26,0,0,1,1.12-.58c.25-.09.24.26,0,.8-.7,1.56-.7,1.56-1.36,3.19-.21.58-.57,1.06-.8,1.09a7.14,7.14,0,0,0-1,.15c-.13.05-.07-.32.13-.84.6-1.43.6-1.43,1.25-2.79a4.12,4.12,0,0,1,.68-1Zm17-1.06c2.22.28,2.22.28,4.53.62A1.25,1.25,0,0,1,27,16c-.64,2.24-.64,2.24-1.28,4.59a1.69,1.69,0,0,1-1.93,1.21c-2.39-.45-2.39-.45-4.68-.86a1.25,1.25,0,0,1-.95-1.67c.71-2.23.71-2.23,1.42-4.34a1.81,1.81,0,0,1,1.8-1.13ZM35,2.79c1.9.4,1.9.4,3.75.86.63.18,1.14.58,1.09.88-.1,1-.1,1-.25,2.16,0,.43-.69.63-1.4.44-2.08-.51-2.08-.51-4.2-1-.73-.14-1.21-.6-1.07-1,.37-1.1.37-1.1.71-2.05.12-.29.73-.43,1.37-.32Z"/><path class="cls-6" d="M10,22.08l3.52.57a1.3,1.3,0,0,1,.83,1.7c-.57,2.37-.57,2.37-1.09,4.78a1.31,1.31,0,0,1-1.49,1.16l-3.42-1a1.38,1.38,0,0,1-.69-1.64c.47-2.21.47-2.21,1-4.39.2-.74.79-1.27,1.33-1.17ZM42.94,5c1.7.67,1.7.67,3.32,1.39a2.1,2.1,0,0,1,1.11,1.07c.16,1,.16,1,.31,2.27,0,.43-.42.6-1,.32-1.81-.74-1.81-.74-3.73-1.46-.67-.23-1.21-.79-1.17-1.23.06-1.17.06-1.17.1-2.19,0-.32.48-.4,1.1-.17ZM33.55,7.66c2.19.46,2.19.46,4.37,1,.74.2,1.27.79,1.17,1.33-.27,1.68-.27,1.68-.58,3.52a1.3,1.3,0,0,1-1.69.84c-2.37-.58-2.37-.58-4.76-1.1a1.28,1.28,0,0,1-1.16-1.49c.5-1.79.5-1.79,1-3.42a1.41,1.41,0,0,1,1.66-.68Zm-16.91-1c1.6-.15,1.6-.15,3.31-.24.62,0,.94.35.67.83-.77,1.49-.77,1.49-1.52,3.12a1.92,1.92,0,0,1-1.67,1c-1.81,0-1.81,0-3.48,0-.54,0-.75-.41-.46-1C14.33,9,14.33,9,15.16,7.61a2.37,2.37,0,0,1,1.48-.92Z"/><path class="cls-7" d="M56.81,24.31c1,.64,1,.64,1.9,1.24A2.14,2.14,0,0,1,59.19,27c-.06,1.76-.06,1.76-.2,3.59-.06.66-.35,1.07-.63.92-.94-.41-.94-.41-2-.84a1.64,1.64,0,0,1-.59-1.62c.19-2,.19-2,.31-4,0-.65.36-1,.75-.77ZM24.38,6.49c2,.15,2,.15,4.11.37.74.09,1.19.58,1,1.09C29,9.56,29,9.56,28.37,11.32a1.64,1.64,0,0,1-1.81,1c-2.27-.3-2.27-.3-4.46-.53a.89.89,0,0,1-.85-1.24C22,8.84,22,8.84,22.69,7.32a1.92,1.92,0,0,1,1.69-.83ZM29.08,0c1.53,0,1.53,0,3.09.09.51.05.9.16.8.25-.27.36-.27.36-.59.84-.1.19-.7.31-1.3.25-1.76-.13-1.76-.13-3.5-.17-.57,0-.88-.15-.7-.33a7.55,7.55,0,0,1,1-.76A4.24,4.24,0,0,1,29.08,0Zm-16,13.35c1.68,0,1.68,0,3.51.08a.89.89,0,0,1,.73,1.31c-.73,2.06-.73,2.06-1.45,4.24a1.68,1.68,0,0,1-1.66,1.23c-1.84-.26-1.84-.26-3.53-.46-.54-.06-.77-.7-.54-1.39.71-2,.71-2,1.48-3.87a1.81,1.81,0,0,1,1.46-1.14Z"/></g></g></svg>